<svg width="84" height="32" viewBox="0 0 84 32" fill="none" xmlns="http://www.w3.org/2000/svg">
<rect x="0.5" width="83" height="32" rx="10" fill="#388BBF"/>
<path d="M6.00879 21V10.92H7.69579V19.418H12.1478V21H6.00879ZM16.6306 21.21C15.8653 21.21 15.1933 21.0443 14.6146 20.713C14.036 20.3817 13.5833 19.922 13.2566 19.334C12.9346 18.746 12.7736 18.0693 12.7736 17.304C12.7736 16.478 12.9323 15.7617 13.2496 15.155C13.567 14.5437 14.008 14.07 14.5726 13.734C15.1373 13.398 15.7906 13.23 16.5326 13.23C17.3166 13.23 17.9816 13.4143 18.5276 13.783C19.0783 14.147 19.4866 14.6627 19.7526 15.33C20.0186 15.9973 20.119 16.7837 20.0536 17.689H18.3806V17.073C18.376 16.2517 18.2313 15.652 17.9466 15.274C17.662 14.896 17.214 14.707 16.6026 14.707C15.912 14.707 15.3986 14.9217 15.0626 15.351C14.7266 15.7757 14.5586 16.3987 14.5586 17.22C14.5586 17.9853 14.7266 18.578 15.0626 18.998C15.3986 19.418 15.8886 19.628 16.5326 19.628C16.948 19.628 17.305 19.537 17.6036 19.355C17.907 19.1683 18.1403 18.9 18.3036 18.55L19.9696 19.054C19.6803 19.7353 19.2323 20.265 18.6256 20.643C18.0236 21.021 17.3586 21.21 16.6306 21.21ZM14.0266 17.689V16.415H19.2276V17.689H14.0266ZM23.4528 21.21C22.9068 21.21 22.4448 21.1073 22.0668 20.902C21.6888 20.692 21.4018 20.4143 21.2058 20.069C21.0145 19.7237 20.9188 19.3433 20.9188 18.928C20.9188 18.564 20.9795 18.2373 21.1008 17.948C21.2221 17.654 21.4088 17.402 21.6608 17.192C21.9128 16.9773 22.2395 16.8023 22.6408 16.667C22.9441 16.569 23.2988 16.4803 23.7048 16.401C24.1155 16.3217 24.5588 16.2493 25.0348 16.184C25.5155 16.114 26.0171 16.0393 26.5398 15.96L25.9378 16.303C25.9425 15.7803 25.8258 15.3953 25.5878 15.148C25.3498 14.9007 24.9485 14.777 24.3838 14.777C24.0431 14.777 23.7141 14.8563 23.3968 15.015C23.0795 15.1737 22.8578 15.4467 22.7318 15.834L21.1918 15.351C21.3785 14.7117 21.7331 14.1983 22.2558 13.811C22.7831 13.4237 23.4925 13.23 24.3838 13.23C25.0558 13.23 25.6461 13.3397 26.1548 13.559C26.6681 13.7783 27.0485 14.1377 27.2958 14.637C27.4311 14.903 27.5128 15.176 27.5408 15.456C27.5688 15.7313 27.5828 16.0323 27.5828 16.359V21H26.1058V19.362L26.3508 19.628C26.0101 20.174 25.6111 20.5753 25.1538 20.832C24.7011 21.084 24.1341 21.21 23.4528 21.21ZM23.7888 19.866C24.1715 19.866 24.4981 19.7983 24.7688 19.663C25.0395 19.5277 25.2541 19.362 25.4128 19.166C25.5761 18.97 25.6858 18.7857 25.7418 18.613C25.8305 18.3983 25.8795 18.1533 25.8888 17.878C25.9028 17.598 25.9098 17.3717 25.9098 17.199L26.4278 17.353C25.9191 17.4323 25.4828 17.5023 25.1188 17.563C24.7548 17.6237 24.4421 17.682 24.1808 17.738C23.9195 17.7893 23.6885 17.8477 23.4878 17.913C23.2918 17.983 23.1261 18.0647 22.9908 18.158C22.8555 18.2513 22.7505 18.3587 22.6758 18.48C22.6058 18.6013 22.5708 18.7437 22.5708 18.907C22.5708 19.0937 22.6175 19.2593 22.7108 19.404C22.8041 19.544 22.9395 19.656 23.1168 19.74C23.2988 19.824 23.5228 19.866 23.7888 19.866ZM29.2652 21V13.44H30.7562V15.281L30.5742 15.043C30.6675 14.791 30.7912 14.5623 30.9452 14.357C31.1039 14.147 31.2929 13.9743 31.5122 13.839C31.6989 13.713 31.9042 13.615 32.1282 13.545C32.3569 13.4703 32.5902 13.426 32.8282 13.412C33.0662 13.3933 33.2972 13.4027 33.5212 13.44V15.015C33.2972 14.9497 33.0382 14.9287 32.7442 14.952C32.4549 14.9753 32.1935 15.057 31.9602 15.197C31.7269 15.323 31.5355 15.484 31.3862 15.68C31.2415 15.876 31.1342 16.1 31.0642 16.352C30.9942 16.5993 30.9592 16.8677 30.9592 17.157V21H29.2652ZM39.946 21V17.36C39.946 17.122 39.9297 16.8583 39.897 16.569C39.8643 16.2797 39.7873 16.002 39.666 15.736C39.5493 15.4653 39.372 15.2437 39.134 15.071C38.9007 14.8983 38.5833 14.812 38.182 14.812C37.9673 14.812 37.755 14.847 37.545 14.917C37.335 14.987 37.1437 15.1083 36.971 15.281C36.803 15.449 36.6677 15.6823 36.565 15.981C36.4623 16.275 36.411 16.653 36.411 17.115L35.41 16.688C35.41 16.044 35.5337 15.4607 35.781 14.938C36.033 14.4153 36.4017 14 36.887 13.692C37.3723 13.3793 37.9697 13.223 38.679 13.223C39.239 13.223 39.701 13.3163 40.065 13.503C40.429 13.6897 40.7183 13.9277 40.933 14.217C41.1477 14.5063 41.3063 14.8143 41.409 15.141C41.5117 15.4677 41.577 15.778 41.605 16.072C41.6377 16.3613 41.654 16.597 41.654 16.779V21H39.946ZM34.703 21V13.44H36.208V15.785H36.411V21H34.703ZM46.0034 21V10.92H47.5224L51.0084 18.06L54.4944 10.92H56.0134V21H54.4384V14.539L51.3444 21H50.6724L47.5854 14.539V21H46.0034ZM61.179 21.21C60.423 21.21 59.7626 21.0397 59.198 20.699C58.6333 20.3583 58.1946 19.8893 57.882 19.292C57.574 18.69 57.42 17.9993 57.42 17.22C57.42 16.4267 57.5786 15.7313 57.896 15.134C58.2133 14.5367 58.6543 14.07 59.219 13.734C59.7836 13.398 60.437 13.23 61.179 13.23C61.9396 13.23 62.6023 13.4003 63.167 13.741C63.7316 14.0817 64.1703 14.553 64.483 15.155C64.7956 15.7523 64.952 16.4407 64.952 17.22C64.952 18.004 64.7933 18.697 64.476 19.299C64.1633 19.8963 63.7246 20.3653 63.16 20.706C62.5953 21.042 61.935 21.21 61.179 21.21ZM61.179 19.628C61.851 19.628 62.3503 19.404 62.677 18.956C63.0036 18.508 63.167 17.9293 63.167 17.22C63.167 16.4873 63.0013 15.904 62.67 15.47C62.3386 15.0313 61.8416 14.812 61.179 14.812C60.7263 14.812 60.353 14.9147 60.059 15.12C59.7696 15.3207 59.555 15.603 59.415 15.967C59.275 16.3263 59.205 16.744 59.205 17.22C59.205 17.9527 59.3706 18.5383 59.702 18.977C60.038 19.411 60.5303 19.628 61.179 19.628ZM66.3543 21V13.44H67.8453V15.281L67.6633 15.043C67.7566 14.791 67.8803 14.5623 68.0343 14.357C68.1929 14.147 68.3819 13.9743 68.6013 13.839C68.7879 13.713 68.9933 13.615 69.2173 13.545C69.4459 13.4703 69.6793 13.426 69.9173 13.412C70.1553 13.3933 70.3863 13.4027 70.6103 13.44V15.015C70.3863 14.9497 70.1273 14.9287 69.8333 14.952C69.5439 14.9753 69.2826 15.057 69.0493 15.197C68.8159 15.323 68.6246 15.484 68.4753 15.68C68.3306 15.876 68.2233 16.1 68.1533 16.352C68.0833 16.5993 68.0483 16.8677 68.0483 17.157V21H66.3543ZM75.1063 21.21C74.341 21.21 73.669 21.0443 73.0903 20.713C72.5117 20.3817 72.059 19.922 71.7323 19.334C71.4103 18.746 71.2493 18.0693 71.2493 17.304C71.2493 16.478 71.408 15.7617 71.7253 15.155C72.0427 14.5437 72.4837 14.07 73.0483 13.734C73.613 13.398 74.2663 13.23 75.0083 13.23C75.7923 13.23 76.4573 13.4143 77.0033 13.783C77.554 14.147 77.9623 14.6627 78.2283 15.33C78.4943 15.9973 78.5947 16.7837 78.5293 17.689H76.8563V17.073C76.8517 16.2517 76.707 15.652 76.4223 15.274C76.1377 14.896 75.6897 14.707 75.0783 14.707C74.3877 14.707 73.8743 14.9217 73.5383 15.351C73.2023 15.7757 73.0343 16.3987 73.0343 17.22C73.0343 17.9853 73.2023 18.578 73.5383 18.998C73.8743 19.418 74.3643 19.628 75.0083 19.628C75.4237 19.628 75.7807 19.537 76.0793 19.355C76.3827 19.1683 76.616 18.9 76.7793 18.55L78.4453 19.054C78.156 19.7353 77.708 20.265 77.1013 20.643C76.4993 21.021 75.8343 21.21 75.1063 21.21ZM72.5023 17.689V16.415H77.7033V17.689H72.5023Z" fill="white"/>
</svg>
